<svg width="40" height="41" viewBox="0 0 40 41" fill="none" xmlns="http://www.w3.org/2000/svg">
<rect y="0.5" width="40" height="40" rx="20" fill="#31BB5E"/>
<path d="M25.8334 18.8333L14.1668 18.8333M25.8334 18.8333L27.3869 21.4224C27.7351 22.0026 27.9091 22.2927 27.9995 22.605C28.0797 22.8818 28.1113 23.1703 28.0932 23.4578C28.0727 23.7823 27.9657 24.1033 27.7517 24.7452L27.5785 25.2648C27.2506 26.2484 27.0867 26.7401 26.7827 27.1037C26.5142 27.4248 26.1694 27.6733 25.7799 27.8264C25.3388 27.9999 24.8205 27.9999 23.7837 27.9999L16.2165 27.9999C15.1798 27.9999 14.6614 27.9999 14.2203 27.8264C13.8308 27.6733 13.486 27.4247 13.2176 27.1037C12.9135 26.7401 12.7496 26.2484 12.4218 25.2648L12.2486 24.7452C12.0346 24.1033 11.9276 23.7823 11.9071 23.4578C11.8889 23.1703 11.9206 22.8818 12.0007 22.605C12.0911 22.2927 12.2652 22.0026 12.6133 21.4224L14.1668 18.8333M25.8334 18.8333L26.1812 17.6162C26.346 17.0392 26.4285 16.7507 26.3637 16.5225C26.307 16.3225 26.1776 16.151 26.0009 16.0415C25.7993 15.9166 25.4992 15.9166 24.8991 15.9166L15.1011 15.9166C14.501 15.9166 14.201 15.9166 13.9993 16.0415C13.8226 16.151 13.6932 16.3225 13.6365 16.5225C13.5718 16.7507 13.6542 17.0392 13.8191 17.6162L14.1668 18.8333M20.0001 15.9166H17.0537C16.6196 15.9166 16.2032 15.741 15.8962 15.4284C15.5892 15.1159 15.4168 14.6919 15.4168 14.2499C15.4168 13.8079 15.5892 13.384 15.8962 13.0714C16.2032 12.7588 16.6196 12.5833 17.0537 12.5833C19.3454 12.5833 20.0001 15.9166 20.0001 15.9166ZM20.0001 15.9166H22.9465C23.3807 15.9166 23.797 15.741 24.104 15.4284C24.411 15.1159 24.5834 14.6919 24.5834 14.2499C24.5834 13.8079 24.411 13.384 24.104 13.0714C23.797 12.7588 23.3807 12.5833 22.9465 12.5833C20.6549 12.5833 20.0001 15.9166 20.0001 15.9166Z" stroke="white" stroke-width="1.5" stroke-linecap="round" stroke-linejoin="round"/>
</svg>
